<svg width="141" height="46" viewBox="0 0 141 46" fill="none" xmlns="http://www.w3.org/2000/svg">
<path d="M61.6971 18.8813C59.6471 15.0819 56.0971 12.3452 52.3071 10.4405C48.1871 8.37547 43.5271 6.69133 38.9171 6.33044C34.9271 6.00965 30.6871 6.95196 27.6871 9.73881C25.6271 11.6535 24.0171 14.8012 22.8971 17.2974C21.9671 19.3725 21.2071 21.5679 21.1271 23.8635C20.9671 28.3646 23.4871 32.5348 25.6271 36.3141C27.6771 39.923 30.1871 43.2511 34.2271 44.6746C38.0971 46.038 42.5471 45.8876 46.5171 45.0456C54.3371 43.3614 61.2871 37.9682 63.0671 29.8783C63.8871 26.1792 63.5171 22.2496 61.6971 18.8913V18.8813Z" fill="#DBE3F1"/>
<mask id="mask0_2260_3201" style="mask-type:luminance" maskUnits="userSpaceOnUse" x="0" y="0" width="32" height="35">
<path d="M22.9471 32.8155C25.9171 30.9309 27.9471 27.8934 29.2871 24.6956C30.7371 21.227 31.8471 17.3275 31.8971 13.5482C31.9371 10.2701 30.9371 6.87177 28.5171 4.57613C26.8471 3.00227 24.2071 1.85946 22.1171 1.08756C20.3771 0.445986 18.5571 -0.0552477 16.6871 0.00490005C13.0271 0.115171 9.77712 2.40079 6.82712 4.35559C4.00712 6.22017 1.44712 8.45567 0.517121 11.834C-0.382879 15.0719 -0.0128813 18.6908 0.897119 21.8786C2.68712 28.1641 7.45712 33.5373 14.1071 34.5498C17.1571 35.0109 20.3271 34.4896 22.9471 32.8255V32.8155Z" fill="white"/>
</mask>
<g mask="url(#mask0_2260_3201)">
<path d="M3.47711 33.9082C11.8471 28.956 19.7671 24.2745 27.6771 19.593C28.8471 18.9013 30.0271 18.3099 31.1871 17.4879C36.5071 13.6885 40.1971 13.057 44.0871 11.9843C44.9871 11.7337 45.2771 12.3853 46.0471 12.7061C41.4671 15.3927 37.4171 17.8086 33.3871 20.1243C25.5471 24.6354 17.7171 29.1064 9.88711 33.5674C4.90711 36.4043 4.91711 36.3843 3.47711 33.9082Z" fill="#DBE3F1"/>
<path d="M6.31711 37.7075C10.2471 35.3918 13.6071 33.3769 16.9271 31.4622C25.6371 26.4499 34.3471 21.4376 43.0371 16.5054C44.3571 15.7536 46.5571 13.8289 46.6271 15.2123C46.6671 15.9641 43.4571 19.5028 41.8671 20.5053C39.7171 21.8586 37.5571 23.1518 35.4171 24.4449C28.5171 28.6052 21.6371 32.6952 14.7271 36.9256C11.8671 38.6799 10.5071 38.5195 9.14711 38.2689C8.29711 38.1185 7.46711 37.9281 6.32711 37.6975L6.31711 37.7075Z" fill="#DBE3F1"/>
<path d="M30.2071 9.95935C27.7871 11.5132 25.3971 12.3552 23.0671 13.7386C20.3771 15.3326 17.5971 17.2673 14.8571 19.0417C11.3471 21.3072 7.83711 23.6029 4.33711 25.7882C2.30711 27.0614 1.43711 27.7731 0.737113 26.1792C0.397113 25.4073 -0.0228924 24.6555 0.927108 23.8936C2.68711 22.8811 5.33711 20.9163 6.91711 19.9038C11.5071 16.9565 16.1071 13.9191 20.7071 10.9317C22.3671 9.84909 24.0271 8.80652 25.6971 7.73389C29.1371 5.50842 30.2671 5.93948 30.3271 7.65369C30.3371 8.04465 30.4571 8.37546 30.5971 8.7564C30.6871 8.99699 30.7771 9.58844 30.2071 9.95935Z" fill="#DBE3F1"/>
<path d="M32.8871 14.0795C29.5871 15.9942 26.4171 17.8187 23.2371 19.7033C18.1971 22.6906 13.1671 25.6679 8.09712 28.8157C2.09712 32.5448 2.08712 32.625 1.98712 28.936C3.92712 27.8934 5.74712 27.0614 7.59712 25.8684C10.5271 23.9838 13.5071 21.7383 16.4371 19.8637C19.2071 18.0893 21.9371 16.6057 24.6871 14.9917C24.8771 14.8814 33.0771 10.8014 33.9971 12.6359C34.1871 13.0169 33.5571 13.6785 32.8771 14.0795H32.8871Z" fill="#DBE3F1"/>
<path d="M28.7971 3.92453C19.8071 9.69872 10.1771 15.7937 0.547107 21.9789C-2.98289 22.3197 -2.66289 20.6456 -1.63289 18.6607C-1.54289 18.4903 1.41711 16.6257 5.37711 14.2098C11.7471 10.3202 20.6871 4.99717 24.3571 3.02232C28.3371 0.877044 28.6071 1.15773 28.7971 3.93456V3.92453Z" fill="#DBE3F1"/>
<path d="M23.6071 1.90957C22.7171 2.67144 9.46711 10.2801 3.21711 13.5682C0.897112 14.7912 -1.35289 16.9766 -1.88289 16.8162C-2.54289 16.6157 -3.75289 15.0218 -2.43289 13.8489C0.257111 11.4831 7.03712 7.80406 9.87712 6.00965C12.6071 4.28541 21.1271 -0.396092 22.7871 -0.255747C23.9471 -0.1555 24.8271 0.84696 23.5971 1.89955L23.6071 1.90957Z" fill="#DBE3F1"/>
<path d="M-5.35288 9.51826C-4.46288 8.75639 8.78712 1.1477 15.0371 -2.14038C17.3571 -3.36338 19.6071 -5.54875 20.1371 -5.38836C20.7971 -5.18787 22.0071 -3.59395 20.6871 -2.42107C17.9971 -0.0552526 11.2171 3.62379 8.37712 5.41819C5.64712 7.14243 -2.87288 11.8239 -4.53288 11.6836C-5.69288 11.5833 -6.57288 10.5809 -5.34288 9.52829L-5.35288 9.51826Z" fill="#DBE3F1"/>
<path d="M41.3571 22.3999C34.8671 29.8583 20.8871 38.2489 15.4071 37.9782C24.0571 32.7854 32.7071 27.5927 41.3571 22.3999Z" fill="#DBE3F1"/>
</g>
<path d="M37.0271 18.1294C37.1371 18.3299 37.1371 18.5705 37.0271 18.781L28.3871 35.7226L28.2071 36.0735C27.8671 36.665 27.3771 37.1762 26.7471 37.5371C24.8471 38.6398 22.4071 37.9882 21.3071 36.0735C21.2871 36.0234 21.2571 35.9833 21.2371 35.9432L11.5371 17.538C11.0971 16.6959 11.6971 15.6934 12.6471 15.6934H34.5371C35.2771 15.6934 35.9571 16.1045 36.3071 16.7661L37.0371 18.1495L37.0271 18.1294Z" fill="#2E52A0"/>
<path d="M25.6871 10.2801C26.7671 12.4455 25.8871 14.2098 23.7271 14.2098C21.5671 14.2098 18.9371 12.4555 17.8571 10.2801C16.7771 8.11482 18.2771 7.03217 20.4371 7.03217C22.5971 7.03217 24.5971 8.11482 25.6771 10.2801H25.6871Z" fill="#2E52A0"/>
<path d="M34.8971 21.598C34.9871 21.7684 34.9871 21.9588 34.8971 22.1293L31.5471 36.0635L31.3971 36.3542C31.1171 36.8454 30.7171 37.2664 30.1971 37.5572C28.6271 38.4694 26.6271 37.9281 25.7171 36.3542C25.6971 36.3141 25.6771 36.284 25.6571 36.2439L17.9171 21.2772C17.5571 20.5855 18.0471 19.7534 18.8271 19.7534L32.8371 19.583C33.4471 19.583 34.0071 19.9238 34.2871 20.4652L34.8871 21.598H34.8971Z" fill="#FFF0BA"/>
<path d="M33.2671 24.4049C33.3171 24.5051 33.3171 24.6154 33.2671 24.7056L31.8871 32.6752L31.8071 32.8356C31.6471 33.1163 31.4171 33.3468 31.1271 33.5273C30.2271 34.0485 29.0871 33.7378 28.5671 32.8456C28.5571 32.8255 28.5471 32.8055 28.5271 32.7854L24.1271 24.2946C23.9171 23.9036 24.2071 23.4224 24.6471 23.4224L32.0871 23.262C32.4371 23.262 32.7571 23.4525 32.9171 23.7633L33.2571 24.4149L33.2671 24.4049Z" fill="#ED6E72"/>
<path d="M65.3171 9.58844L52.4771 34.64C51.3971 36.7552 49.2271 38.0784 46.8571 38.0684H24.6971C25.7271 38.0684 26.8271 37.1562 27.5371 35.7126V35.7026L27.6471 35.4821L28.7271 33.3669L41.5671 8.25517C42.4871 6.46076 44.3371 5.32798 46.3471 5.338H49.6971C50.1571 5.34803 50.4571 5.83923 50.2471 6.25024L49.2971 8.29527C47.9571 10.9819 48.9371 13.1672 51.4871 13.1672C54.3071 13.1672 56.7371 11.8741 58.5371 8.30529C58.8571 7.67374 59.7471 5.73899 59.7471 5.73899C59.8571 5.52847 60.0671 5.38813 60.3071 5.39815H62.7971C66.7971 5.40818 65.7171 8.77645 65.3171 9.57842V9.58844Z" fill="#2E52A0"/>
<path d="M49.2071 18.2497H50.1271L49.1471 18.8612L49.0571 19.8336L48.5471 19.2422L47.5671 19.8336L48.2371 18.8612L47.7171 18.2497H48.6471L49.2971 17.3074L49.2071 18.2497Z" fill="#FFF0BA"/>
<path d="M44.3971 30.7404H45.3671L44.3571 31.3218L44.2971 32.2541L43.7471 31.6827L42.7471 32.2541L43.4171 31.3218L42.8571 30.7404H43.8171L44.4671 29.8282L44.3971 30.7404Z" fill="#FFF0BA"/>
<path d="M47.7771 29.9084H48.7371L47.7371 30.4998L47.6871 31.4321L47.1371 30.8507L46.1371 31.4321L46.7971 30.4998L46.2371 29.9084H47.1971L47.8371 28.9961L47.7771 29.9084Z" fill="#FFF0BA"/>
<path d="M51.8671 19.0918H52.7971L51.8271 19.6732L51.7671 20.6055L51.2371 20.0341L50.2671 20.6055L50.9171 19.6732L50.3771 19.0918H51.3071L51.9371 18.1796L51.8671 19.0918Z" fill="#FFF0BA"/>
<path d="M53.2071 21.3774H54.1471L53.1771 21.9689L53.1271 22.9012L52.5771 22.3298L51.6071 22.9012L52.2571 21.9689L51.7171 21.3774H52.6471L53.2771 20.4652L53.2071 21.3774Z" fill="#FFF0BA"/>
<path d="M50.8771 27.6428H51.8371L50.8471 28.2343L50.8071 29.1666L50.2471 28.5951L49.2671 29.1666L49.9171 28.2343L49.3571 27.6428H50.3071L50.9371 26.7406L50.8771 27.6428Z" fill="#FFF0BA"/>
<path d="M52.8971 24.465H53.8471L52.8671 25.0564L52.8271 25.9887L52.2671 25.4073L51.2971 25.9887L51.9471 25.0564L51.3871 24.465H52.3371L52.9571 23.5527L52.8971 24.465Z" fill="#FFF0BA"/>
<path d="M45.8671 19.0918H46.7971L45.8071 19.6832L45.7371 20.6155L45.2071 20.0441L44.2271 20.6155L44.8971 19.6832L44.3771 19.0918H45.3071L45.9471 18.1896L45.8671 19.0918Z" fill="#FFF0BA"/>
<path d="M42.8071 21.3874H43.7471L42.7471 21.9789L42.6671 22.9112L42.1471 22.3298L41.1471 22.9112L41.8271 21.9789L41.3071 21.3874H42.2371L42.8971 20.4752L42.8071 21.3874Z" fill="#FFF0BA"/>
<path d="M40.7471 24.475H41.6971L40.6971 25.0665L40.6171 25.9988L40.0871 25.4173L39.0871 25.9988L39.7671 25.0665L39.2371 24.475H40.1871L40.8371 23.5628L40.7471 24.475Z" fill="#FFF0BA"/>
<path d="M40.2671 27.6528H41.2271L40.2171 28.2443L40.1471 29.1766L39.6071 28.6052L38.5971 29.1766L39.2871 28.2443L38.7471 27.6528H39.6971L40.3571 26.7506L40.2671 27.6528Z" fill="#FFF0BA"/>
<path d="M41.5971 29.9184H42.5571L41.5471 30.4998L41.4771 31.4321L40.9371 30.8607L39.9271 31.4321L40.6071 30.4998L40.0571 29.9184H41.0171L41.6671 29.0061L41.5971 29.9184Z" fill="#FFF0BA"/>
<path d="M88.4371 14.1196C88.3671 14.1196 88.3171 14.1096 88.2871 14.0795C88.2671 14.0494 88.2571 14.0093 88.2571 13.9592V8.72633C88.2571 8.61606 88.3071 8.56593 88.4171 8.56593H90.0871C90.5371 8.56593 90.9171 8.63611 91.2171 8.7965C91.5171 8.93684 91.7471 9.13734 91.9171 9.38795C92.0971 9.63857 92.2171 9.92929 92.2771 10.2601C92.3471 10.6009 92.3871 10.9518 92.3871 11.3227C92.3871 11.6936 92.3571 12.0645 92.2871 12.4054C92.2171 12.7462 92.1071 13.0369 91.9371 13.2976C91.7671 13.5482 91.5271 13.7487 91.2271 13.899C90.9271 14.0394 90.5571 14.1196 90.0871 14.1196H88.4371ZM91.4071 11.3929C91.4071 11.0019 91.3671 10.6811 91.2971 10.4205C91.2271 10.1598 91.1371 9.94934 91.0171 9.79897C90.8971 9.6486 90.7471 9.53832 90.5771 9.47817C90.4071 9.41802 90.2271 9.38795 90.0371 9.38795H89.1771V13.2875H89.9771C90.1671 13.2875 90.3471 13.2675 90.5171 13.2174C90.6871 13.1672 90.8371 13.077 90.9671 12.9367C91.0971 12.7963 91.2071 12.6059 91.2771 12.3653C91.3571 12.1147 91.3971 11.7939 91.3971 11.4029L91.4071 11.3929Z" fill="#FFFFFF"/>
<path d="M94.3771 8.92682C94.3771 8.99699 94.3771 9.05714 94.3571 9.11729C94.3471 9.17744 94.3171 9.22756 94.2871 9.26766C94.2571 9.31778 94.2071 9.34786 94.1371 9.37793C94.0771 9.39798 93.9971 9.408 93.8871 9.408C93.7771 9.408 93.6871 9.39798 93.6271 9.3679C93.5671 9.33783 93.5171 9.30776 93.4871 9.25763C93.4571 9.20751 93.4271 9.15739 93.4171 9.10727C93.4071 9.04712 93.3971 8.98697 93.3971 8.92682C93.3971 8.7965 93.4271 8.68623 93.4871 8.58598C93.5571 8.48574 93.6871 8.44564 93.8771 8.44564C94.0671 8.44564 94.2171 8.49576 94.2671 8.57596C94.3271 8.65616 94.3571 8.77645 94.3571 8.9168L94.3771 8.92682ZM94.3271 13.9592C94.3271 13.9592 94.3171 14.0394 94.2971 14.0795C94.2771 14.1096 94.2371 14.1196 94.1771 14.1196H93.5871C93.4771 14.1196 93.4171 14.0695 93.4171 13.9592V10.1799C93.4171 10.0696 93.4771 10.0195 93.5871 10.0195H94.1771C94.2371 10.0195 94.2771 10.0396 94.2971 10.0696C94.3171 10.0997 94.3271 10.1298 94.3271 10.1799V13.9592Z" fill="#FFFFFF"/>
<path d="M97.0871 9.93931C97.3471 9.93931 97.6271 9.95936 97.9171 9.99946C98.2071 10.0396 98.4471 10.0897 98.6471 10.1598C98.7471 10.1899 98.8071 10.24 98.8271 10.3202C98.8571 10.3904 98.8671 10.4606 98.8671 10.5408V14.0795C98.8671 14.3201 98.8471 14.5406 98.8171 14.7511C98.7871 14.9516 98.7071 15.1321 98.5871 15.2824C98.4671 15.4328 98.2871 15.5531 98.0571 15.6333C97.8271 15.7135 97.5171 15.7536 97.1271 15.7536C96.9071 15.7536 96.6771 15.7436 96.4271 15.7135C96.1771 15.6834 95.9771 15.6333 95.8071 15.5631C95.7171 15.5331 95.6671 15.493 95.6471 15.4428C95.6271 15.4027 95.6271 15.3626 95.6471 15.3225L95.7171 15.0118C95.7271 14.9416 95.7471 14.9015 95.7871 14.8915C95.8271 14.8814 95.8871 14.8814 95.9571 14.8915C96.1471 14.9215 96.3371 14.9416 96.5471 14.9516C96.7571 14.9717 96.9371 14.9717 97.0971 14.9717C97.2771 14.9717 97.4171 14.9616 97.5271 14.9316C97.6471 14.9015 97.7271 14.8614 97.7971 14.8013C97.8671 14.7411 97.9071 14.6709 97.9271 14.5707C97.9571 14.4704 97.9671 14.3702 97.9671 14.2299V13.9492C97.7571 14.0294 97.5671 14.0795 97.3971 14.1096C97.2271 14.1396 97.0871 14.1497 96.9571 14.1497C96.6171 14.1497 96.3471 14.0995 96.1271 13.9993C95.9071 13.899 95.7471 13.7587 95.6171 13.5782C95.4971 13.3978 95.4171 13.1773 95.3671 12.9266C95.3271 12.666 95.2971 12.3853 95.2971 12.0746C95.2971 11.7437 95.3271 11.453 95.3771 11.1824C95.4371 10.9117 95.5271 10.6912 95.6671 10.5007C95.8071 10.3102 95.9871 10.1599 96.2171 10.0696C96.4571 9.96938 96.7471 9.91926 97.0971 9.91926L97.0871 9.93931ZM96.2271 12.0144C96.2271 12.2751 96.2371 12.4856 96.2671 12.656C96.2971 12.8264 96.3471 12.9667 96.4071 13.077C96.4771 13.1773 96.5571 13.2474 96.6571 13.2976C96.7671 13.3477 96.8871 13.3677 97.0271 13.3677C97.1471 13.3677 97.2871 13.3577 97.4471 13.3377C97.6171 13.3176 97.7871 13.2775 97.9571 13.2274V10.8415C97.8271 10.8215 97.6971 10.8014 97.5471 10.7914C97.4071 10.7714 97.2671 10.7714 97.1371 10.7714C97.0071 10.7714 96.8971 10.7814 96.7871 10.8114C96.6771 10.8415 96.5871 10.8916 96.4971 10.9919C96.4171 11.0721 96.3471 11.2024 96.2971 11.3628C96.2571 11.5332 96.2271 11.7538 96.2271 12.0244V12.0144Z" fill="#FFFFFF"/>
<path d="M100.767 8.92682C100.767 8.99699 100.767 9.05714 100.747 9.11729C100.737 9.17744 100.707 9.22756 100.677 9.26766C100.647 9.31778 100.597 9.34786 100.527 9.37793C100.467 9.39798 100.387 9.408 100.277 9.408C100.167 9.408 100.077 9.39798 100.017 9.3679C99.9571 9.33783 99.9071 9.30776 99.8771 9.25763C99.8471 9.20751 99.8171 9.15739 99.8071 9.10727C99.7971 9.04712 99.7871 8.98697 99.7871 8.92682C99.7871 8.7965 99.8171 8.68623 99.8771 8.58598C99.9471 8.48574 100.077 8.44564 100.267 8.44564C100.457 8.44564 100.607 8.49576 100.657 8.57596C100.717 8.65616 100.747 8.77645 100.747 8.9168L100.767 8.92682ZM100.717 13.9592C100.717 13.9592 100.707 14.0394 100.687 14.0795C100.667 14.1096 100.627 14.1196 100.567 14.1196H99.9771C99.8671 14.1196 99.8071 14.0695 99.8071 13.9592V10.1799C99.8071 10.0696 99.8671 10.0195 99.9771 10.0195H100.567C100.627 10.0195 100.667 10.0396 100.687 10.0696C100.707 10.0997 100.717 10.1298 100.717 10.1799V13.9592Z" fill="#FFFFFF"/>
<path d="M104.257 13.7988C104.277 13.899 104.237 13.9692 104.147 14.0093C104.077 14.0394 103.987 14.0695 103.897 14.0895C103.807 14.1096 103.707 14.1296 103.597 14.1396C103.497 14.1597 103.407 14.1697 103.307 14.1697C103.217 14.1697 103.137 14.1697 103.077 14.1697C102.837 14.1697 102.647 14.1396 102.507 14.0695C102.377 13.9993 102.277 13.899 102.207 13.7787C102.137 13.6584 102.097 13.5181 102.087 13.3477C102.067 13.1873 102.067 13.0169 102.067 12.8364V10.7413H101.657C101.597 10.7413 101.557 10.7313 101.537 10.7112C101.517 10.6811 101.507 10.641 101.507 10.5909V10.1799C101.507 10.1198 101.517 10.0797 101.537 10.0596C101.557 10.0295 101.597 10.0195 101.657 10.0195H102.077V9.15739C102.077 9.09724 102.087 9.05715 102.117 9.0371C102.147 9.00702 102.187 8.98697 102.237 8.97695L102.787 8.82658C102.897 8.7965 102.957 8.82658 102.957 8.92683V10.0195H103.837C103.907 10.0195 103.947 10.0295 103.957 10.0596C103.977 10.0897 103.987 10.1298 103.987 10.1799V10.6009C103.987 10.6611 103.977 10.7012 103.957 10.7212C103.937 10.7413 103.897 10.7513 103.837 10.7513H102.957V12.8364C102.957 12.9467 102.957 13.0369 102.977 13.0971C102.997 13.1572 103.017 13.2073 103.057 13.2374C103.097 13.2675 103.157 13.2875 103.227 13.2875C103.297 13.2875 103.387 13.2875 103.497 13.2875C103.557 13.2875 103.637 13.2875 103.747 13.2875C103.867 13.2875 103.967 13.2775 104.047 13.2675C104.087 13.2675 104.127 13.2675 104.147 13.2875C104.167 13.3076 104.187 13.3377 104.197 13.3878L104.257 13.8088V13.7988Z" fill="#FFFFFF"/>
<path d="M107.217 12.255H106.207C105.997 12.255 105.837 12.3051 105.717 12.4054C105.597 12.5056 105.537 12.6861 105.537 12.9567C105.537 13.1372 105.577 13.2675 105.647 13.3377C105.727 13.4078 105.857 13.4379 106.047 13.4379C106.137 13.4379 106.227 13.4279 106.337 13.4078C106.447 13.3878 106.547 13.3577 106.647 13.3176C106.757 13.2775 106.847 13.2374 106.947 13.1973C107.047 13.1472 107.137 13.0971 107.207 13.057V12.265L107.217 12.255ZM107.267 13.6384C107.057 13.7988 106.827 13.9291 106.557 14.0294C106.297 14.1296 106.027 14.1797 105.747 14.1797C105.527 14.1797 105.347 14.1497 105.197 14.0995C105.057 14.0394 104.937 13.9592 104.847 13.8589C104.767 13.7487 104.707 13.6284 104.667 13.488C104.637 13.3477 104.617 13.1773 104.617 13.0068C104.617 12.5156 104.737 12.1648 104.997 11.9442C105.257 11.7237 105.647 11.6034 106.167 11.6034H107.217V11.3829C107.217 11.2626 107.207 11.1523 107.177 11.0721C107.157 10.9819 107.107 10.9117 107.047 10.8516C106.977 10.7914 106.887 10.7513 106.787 10.7313C106.687 10.7112 106.537 10.7012 106.367 10.7012C106.297 10.7012 106.217 10.7012 106.117 10.7012C106.027 10.7012 105.927 10.7112 105.817 10.7212C105.717 10.7212 105.617 10.7313 105.517 10.7413C105.417 10.7513 105.327 10.7613 105.247 10.7613C105.167 10.7714 105.107 10.7714 105.077 10.7613C105.047 10.7513 105.027 10.7112 105.017 10.6511L104.947 10.3403C104.937 10.2801 104.947 10.24 104.967 10.21C104.987 10.1699 105.047 10.1298 105.137 10.0897C105.227 10.0596 105.327 10.0295 105.447 10.0095C105.567 9.98944 105.687 9.96938 105.817 9.95936C105.947 9.93931 106.067 9.92929 106.187 9.92929C106.317 9.91926 106.427 9.90923 106.527 9.90923C106.887 9.90923 107.167 9.94933 107.377 10.0195C107.597 10.0897 107.757 10.2 107.867 10.3303C107.977 10.4606 108.047 10.621 108.087 10.8115C108.117 11.0019 108.137 11.2124 108.137 11.443V13.057C108.137 13.1372 108.137 13.2073 108.137 13.2575C108.147 13.3076 108.157 13.3377 108.177 13.3677C108.197 13.3878 108.227 13.4078 108.267 13.4179C108.307 13.4279 108.357 13.4379 108.427 13.4379C108.487 13.4379 108.527 13.458 108.547 13.468C108.567 13.488 108.577 13.5181 108.577 13.5582V13.9091C108.577 14.0093 108.507 14.0594 108.377 14.0895C108.307 14.0995 108.247 14.1096 108.177 14.1096C108.107 14.1196 108.047 14.1296 107.987 14.1296C107.797 14.1296 107.637 14.0895 107.517 14.0193C107.397 13.9492 107.327 13.8188 107.277 13.6184H107.257L107.267 13.6384Z" fill="#FFFFFF"/>
<path d="M110.157 13.077C110.157 13.2073 110.187 13.2875 110.237 13.3176C110.297 13.3477 110.397 13.3577 110.537 13.3577C110.597 13.3577 110.637 13.3677 110.657 13.3778C110.677 13.3878 110.697 13.4179 110.707 13.458L110.737 13.889C110.737 13.9592 110.707 14.0093 110.627 14.0494C110.547 14.0895 110.457 14.1096 110.357 14.1196C110.247 14.1396 110.167 14.1396 110.097 14.1396C109.787 14.1396 109.567 14.0695 109.437 13.9291C109.317 13.7888 109.257 13.5682 109.257 13.2875V8.36544C109.257 8.25517 109.307 8.20505 109.417 8.20505H110.007C110.117 8.20505 110.167 8.25517 110.167 8.36544V13.067L110.157 13.077Z" fill="#FFFFFF"/>
<path d="M113.877 8.72633C113.877 8.61606 113.927 8.55591 114.037 8.55591H114.657C114.767 8.55591 114.817 8.61606 114.817 8.72633V13.9592C114.817 14.0695 114.767 14.1196 114.657 14.1196H114.037C113.927 14.1196 113.877 14.0695 113.877 13.9592V8.72633Z" fill="#FFFFFF"/>
<path d="M119.407 13.9591C119.407 13.9591 119.397 14.0493 119.377 14.0794C119.357 14.1095 119.317 14.1195 119.257 14.1195H118.667C118.567 14.1195 118.517 14.0694 118.517 13.9691V13.6984H118.497C118.427 13.7486 118.337 13.8087 118.247 13.8689C118.147 13.929 118.047 13.9791 117.927 14.0293C117.807 14.0794 117.687 14.1195 117.567 14.1496C117.447 14.1796 117.327 14.1997 117.207 14.1997C116.937 14.1997 116.717 14.1496 116.537 14.0593C116.367 13.9591 116.227 13.8187 116.127 13.6383C116.027 13.4579 115.957 13.2473 115.907 12.9967C115.867 12.7361 115.847 12.4554 115.847 12.1346C115.847 11.7938 115.867 11.493 115.917 11.2224C115.967 10.9517 116.047 10.7211 116.167 10.5307C116.287 10.3402 116.457 10.1998 116.657 10.0996C116.877 9.99936 117.147 9.94923 117.487 9.94923C117.827 9.94923 118.167 10.0094 118.507 10.1397V8.40544C118.507 8.34529 118.507 8.3052 118.527 8.28515C118.547 8.25507 118.597 8.24505 118.657 8.24505H119.247C119.317 8.24505 119.357 8.2651 119.367 8.29517C119.387 8.32524 119.387 8.36534 119.387 8.41547V13.9892L119.407 13.9591ZM118.507 10.8815C118.317 10.8214 118.137 10.7913 117.987 10.7713C117.837 10.7512 117.697 10.7412 117.557 10.7412C117.407 10.7412 117.277 10.7612 117.177 10.8114C117.067 10.8615 116.987 10.9317 116.927 11.0419C116.867 11.1522 116.817 11.2925 116.797 11.473C116.767 11.6434 116.757 11.8639 116.757 12.1246C116.757 12.3852 116.767 12.6058 116.787 12.7762C116.817 12.9366 116.857 13.0669 116.907 13.1471C116.967 13.2273 117.027 13.2874 117.107 13.3275C117.187 13.3576 117.277 13.3676 117.387 13.3676C117.467 13.3676 117.567 13.3576 117.667 13.3275C117.777 13.2975 117.877 13.2674 117.977 13.2273C118.087 13.1872 118.177 13.1471 118.267 13.107C118.357 13.0569 118.437 13.0268 118.497 12.9867V10.8916L118.507 10.8815Z" fill="#FFFFFF"/>
<path d="M121.147 12.3151C121.147 12.5257 121.177 12.7061 121.217 12.8464C121.257 12.9868 121.327 13.0971 121.407 13.1873C121.487 13.2675 121.587 13.3176 121.707 13.3577C121.827 13.3978 121.967 13.4078 122.147 13.4078C122.297 13.4078 122.467 13.3978 122.677 13.3778C122.877 13.3577 123.057 13.3377 123.217 13.3176C123.297 13.3076 123.347 13.3176 123.377 13.3176C123.407 13.3276 123.437 13.3778 123.447 13.4479L123.497 13.7286C123.507 13.7888 123.497 13.8389 123.497 13.879C123.487 13.9191 123.437 13.9492 123.367 13.9893C123.287 14.0193 123.187 14.0494 123.077 14.0795C122.967 14.0995 122.847 14.1196 122.727 14.1396C122.607 14.1597 122.487 14.1697 122.367 14.1797C122.247 14.1897 122.137 14.1998 122.037 14.1998C121.647 14.1998 121.327 14.1396 121.087 14.0193C120.847 13.899 120.667 13.7487 120.547 13.5482C120.417 13.3577 120.337 13.1271 120.297 12.8765C120.257 12.6159 120.237 12.3552 120.237 12.0846C120.237 11.8841 120.257 11.6535 120.287 11.4029C120.317 11.1523 120.397 10.9217 120.507 10.7012C120.627 10.4806 120.807 10.3002 121.037 10.1598C121.277 10.0095 121.587 9.92928 121.997 9.92928C122.367 9.92928 122.657 9.98943 122.887 10.0997C123.117 10.21 123.297 10.3603 123.427 10.5308C123.557 10.7012 123.637 10.9017 123.677 11.1322C123.727 11.3528 123.757 11.5733 123.757 11.8039C123.757 11.9543 123.737 12.0746 123.687 12.1748C123.627 12.275 123.517 12.3151 123.357 12.3151H121.177H121.147ZM121.967 10.6912C121.807 10.6912 121.687 10.7112 121.587 10.7613C121.487 10.8115 121.407 10.8716 121.337 10.9618C121.277 11.042 121.227 11.1523 121.207 11.2826C121.177 11.4029 121.157 11.5432 121.147 11.7036H122.777C122.777 11.5733 122.767 11.453 122.747 11.3327C122.727 11.2124 122.687 11.1022 122.627 11.0119C122.567 10.9117 122.487 10.8415 122.377 10.7814C122.267 10.7212 122.137 10.7012 121.967 10.7012V10.6912Z" fill="#FFFFFF"/>
<path d="M127.957 13.9592C127.957 13.9592 127.947 14.0494 127.927 14.0795C127.907 14.1096 127.867 14.1196 127.807 14.1196H127.217C127.107 14.1196 127.057 14.0695 127.057 13.9592V11.6034C127.057 11.3628 127.017 11.1623 126.937 11.0119C126.857 10.8616 126.707 10.7814 126.467 10.7814C126.387 10.7814 126.287 10.7914 126.177 10.8215C126.067 10.8516 125.967 10.8816 125.857 10.9317C125.747 10.9718 125.657 11.0119 125.557 11.052C125.467 11.0921 125.387 11.1222 125.337 11.1523V13.9492C125.337 14.0594 125.287 14.1096 125.177 14.1096H124.587C124.477 14.1096 124.427 14.0594 124.427 13.9492V10.1799C124.427 10.0696 124.477 10.0095 124.587 10.0095H125.177C125.287 10.0095 125.337 10.0696 125.337 10.1799V10.4305H125.357C125.437 10.3704 125.527 10.3202 125.627 10.2601C125.737 10.2 125.857 10.1398 125.977 10.0897C126.097 10.0396 126.227 9.99946 126.357 9.96938C126.487 9.93931 126.617 9.91926 126.747 9.91926C127.027 9.91926 127.247 9.96939 127.407 10.0496C127.567 10.1298 127.687 10.2501 127.767 10.3904C127.847 10.5308 127.897 10.7012 127.927 10.9017C127.947 11.0921 127.957 11.2926 127.957 11.5032V13.9291V13.9592Z" fill="#FFFFFF"/>
<path d="M131.337 13.7988C131.357 13.899 131.317 13.9692 131.227 14.0093C131.157 14.0394 131.067 14.0695 130.977 14.0895C130.887 14.1096 130.787 14.1296 130.677 14.1396C130.577 14.1597 130.487 14.1697 130.387 14.1697C130.297 14.1697 130.217 14.1697 130.157 14.1697C129.917 14.1697 129.727 14.1396 129.587 14.0695C129.457 13.9993 129.357 13.899 129.287 13.7787C129.217 13.6584 129.177 13.5181 129.167 13.3477C129.147 13.1873 129.147 13.0169 129.147 12.8364V10.7413H128.737C128.677 10.7413 128.637 10.7313 128.617 10.7112C128.597 10.6811 128.587 10.641 128.587 10.5909V10.1799C128.587 10.1198 128.597 10.0797 128.617 10.0596C128.637 10.0295 128.677 10.0195 128.737 10.0195H129.157V9.15739C129.157 9.09724 129.167 9.05715 129.197 9.0371C129.227 9.00702 129.267 8.98697 129.317 8.97695L129.867 8.82658C129.977 8.7965 130.037 8.82658 130.037 8.92683V10.0195H130.917C130.987 10.0195 131.027 10.0295 131.037 10.0596C131.057 10.0897 131.067 10.1298 131.067 10.1799V10.6009C131.067 10.6611 131.057 10.7012 131.037 10.7212C131.017 10.7413 130.977 10.7513 130.917 10.7513H130.037V12.8364C130.037 12.9467 130.037 13.0369 130.057 13.0971C130.077 13.1572 130.097 13.2073 130.137 13.2374C130.177 13.2675 130.237 13.2875 130.307 13.2875C130.377 13.2875 130.467 13.2875 130.577 13.2875C130.637 13.2875 130.717 13.2875 130.827 13.2875C130.947 13.2875 131.047 13.2775 131.127 13.2675C131.167 13.2675 131.207 13.2675 131.227 13.2875C131.247 13.3076 131.267 13.3377 131.277 13.3878L131.337 13.8088V13.7988Z" fill="#FFFFFF"/>
<path d="M132.867 8.92682C132.867 8.99699 132.867 9.05714 132.847 9.11729C132.837 9.17744 132.807 9.22756 132.777 9.26766C132.747 9.31778 132.697 9.34786 132.627 9.37793C132.567 9.39798 132.487 9.408 132.377 9.408C132.267 9.408 132.177 9.39798 132.117 9.3679C132.057 9.33783 132.007 9.30776 131.977 9.25763C131.947 9.20751 131.917 9.15739 131.907 9.10727C131.897 9.04712 131.887 8.98697 131.887 8.92682C131.887 8.7965 131.917 8.68623 131.977 8.58598C132.047 8.48574 132.177 8.44564 132.367 8.44564C132.557 8.44564 132.707 8.49576 132.757 8.57596C132.817 8.65616 132.847 8.77645 132.847 8.9168L132.867 8.92682ZM132.817 13.9592C132.817 13.9592 132.807 14.0394 132.787 14.0795C132.767 14.1096 132.727 14.1196 132.667 14.1196H132.077C131.967 14.1196 131.907 14.0695 131.907 13.9592V10.1799C131.907 10.0696 131.967 10.0195 132.077 10.0195H132.667C132.727 10.0195 132.767 10.0396 132.787 10.0696C132.807 10.0997 132.817 10.1298 132.817 10.1799V13.9592Z" fill="#FFFFFF"/>
<path d="M136.347 13.7988C136.367 13.899 136.327 13.9692 136.237 14.0093C136.167 14.0394 136.077 14.0695 135.987 14.0895C135.897 14.1096 135.797 14.1296 135.687 14.1396C135.587 14.1597 135.497 14.1697 135.397 14.1697C135.307 14.1697 135.227 14.1697 135.167 14.1697C134.927 14.1697 134.737 14.1396 134.597 14.0695C134.467 13.9993 134.367 13.899 134.297 13.7787C134.227 13.6584 134.187 13.5181 134.177 13.3477C134.157 13.1873 134.157 13.0169 134.157 12.8364V10.7413H133.747C133.687 10.7413 133.647 10.7313 133.627 10.7112C133.607 10.6811 133.597 10.641 133.597 10.5909V10.1799C133.597 10.1198 133.607 10.0797 133.627 10.0596C133.647 10.0295 133.687 10.0195 133.747 10.0195H134.167V9.15739C134.167 9.09724 134.177 9.05715 134.207 9.0371C134.237 9.00702 134.277 8.98697 134.327 8.97695L134.877 8.82658C134.987 8.7965 135.047 8.82658 135.047 8.92683V10.0195H135.927C135.997 10.0195 136.037 10.0295 136.047 10.0596C136.067 10.0897 136.077 10.1298 136.077 10.1799V10.6009C136.077 10.6611 136.067 10.7012 136.047 10.7212C136.027 10.7413 135.987 10.7513 135.927 10.7513H135.047V12.8364C135.047 12.9467 135.047 13.0369 135.067 13.0971C135.087 13.1572 135.107 13.2073 135.147 13.2374C135.187 13.2675 135.247 13.2875 135.317 13.2875C135.387 13.2875 135.477 13.2875 135.587 13.2875C135.647 13.2875 135.727 13.2875 135.837 13.2875C135.957 13.2875 136.057 13.2775 136.137 13.2675C136.177 13.2675 136.217 13.2675 136.237 13.2875C136.257 13.3076 136.277 13.3377 136.287 13.3878L136.347 13.8088V13.7988Z" fill="#FFFFFF"/>
<path d="M138.417 12.9467C138.477 12.7763 138.537 12.6059 138.587 12.4655C138.647 12.3151 138.687 12.1848 138.727 12.0746C138.767 11.9442 138.807 11.8139 138.847 11.7036L139.357 10.1699C139.357 10.1699 139.397 10.0897 139.427 10.0596C139.457 10.0396 139.497 10.0295 139.557 10.0295H140.167C140.237 10.0295 140.267 10.0496 140.277 10.0797C140.277 10.1097 140.277 10.1498 140.257 10.2L138.337 15.523C138.317 15.5832 138.287 15.6233 138.267 15.6433C138.247 15.6634 138.187 15.6734 138.117 15.6734H137.557C137.487 15.6734 137.447 15.6534 137.437 15.6233C137.437 15.5932 137.437 15.5531 137.457 15.503L137.977 14.0895L136.537 10.2C136.537 10.2 136.517 10.1198 136.517 10.0797C136.527 10.0496 136.567 10.0295 136.627 10.0295H137.257C137.317 10.0295 137.347 10.0295 137.377 10.0496C137.397 10.0596 137.417 10.0997 137.447 10.1599L137.987 11.7137L138.397 12.9567H138.427L138.417 12.9467Z" fill="#FFFFFF"/>
<path d="M75.7371 8.74638C75.7371 8.63611 75.7971 8.57596 75.9071 8.57596H79.0071C79.1171 8.57596 79.1671 8.62608 79.1671 8.73635V9.24761C79.1671 9.34786 79.1071 9.39798 78.9971 9.39798H76.6971V10.8215H78.7371C78.8471 10.8215 78.9071 10.8716 78.9071 10.9718V11.4831C78.9071 11.5833 78.8471 11.6335 78.7371 11.6335H76.6971V13.2675H79.0571C79.1571 13.2675 79.2071 13.3176 79.2071 13.4279V13.9291C79.2071 14.0294 79.1571 14.0795 79.0471 14.0795H75.9071C75.7971 14.0795 75.7371 14.0294 75.7371 13.9291V8.7564V8.74638Z" fill="#FFFFFF"/>
<path d="M82.2271 13.3076C82.5971 13.3076 82.8771 13.2073 83.0671 13.0068C83.2671 12.8064 83.3671 12.4856 83.3671 12.0545V8.73635C83.3671 8.62608 83.4271 8.56593 83.5371 8.56593H84.1671C84.2271 8.56593 84.2671 8.58598 84.2871 8.61606C84.3071 8.64613 84.3271 8.68623 84.3271 8.73635V12.0545C84.3271 12.2249 84.3071 12.3853 84.2871 12.5457C84.2671 12.7061 84.2271 12.8665 84.1671 13.0269C84.0871 13.2274 83.9771 13.3978 83.8371 13.5281C83.7071 13.6685 83.5571 13.7787 83.3871 13.869C83.2171 13.9592 83.0371 14.0193 82.8371 14.0594C82.6371 14.0995 82.4371 14.1296 82.2271 14.1296C81.3371 14.1296 80.7371 13.8188 80.4071 13.2073C80.3171 13.0369 80.2471 12.8665 80.2171 12.666C80.1771 12.4655 80.1571 12.255 80.1571 12.0445V8.72633C80.1571 8.61606 80.2071 8.55591 80.3171 8.55591H80.9471C81.0571 8.55591 81.1071 8.61606 81.1071 8.72633V12.0445C81.1071 12.4555 81.1971 12.7663 81.3871 12.9768C81.5771 13.1873 81.8571 13.2875 82.2271 13.2875V13.3076Z" fill="#FFFFFF"/>
<path d="M85.1871 26.7606L84.6971 28.4348L82.9871 34.219C82.9371 34.3894 82.8671 34.5197 82.7771 34.5999C82.6971 34.6801 82.5471 34.7202 82.3271 34.7202H80.6371C80.4171 34.7202 80.2571 34.6801 80.1671 34.5999C80.0671 34.5197 80.0071 34.3994 79.9771 34.249L75.7671 19.5229C75.6871 19.2121 75.7871 19.0517 76.0771 19.0517H77.9271C78.1171 19.0517 78.2471 19.0918 78.3271 19.172C78.4271 19.2321 78.4971 19.3524 78.5371 19.5229C78.9271 20.9564 79.2871 22.2596 79.6171 23.4425C79.7571 23.9437 79.8971 24.455 80.0171 24.9562C80.1571 25.4474 80.2871 25.8885 80.3971 26.2995C80.5271 26.7105 80.6271 27.0614 80.7071 27.3621C80.7871 27.6629 80.8371 27.8533 80.8771 27.9536L81.6271 30.9008H81.6971L82.3771 28.4749C82.3871 28.4147 82.4371 28.2343 82.5171 27.9536C82.5971 27.6528 82.6871 27.312 82.7971 26.911C82.9271 26.5 83.0471 26.0689 83.1771 25.6178C83.3171 25.1667 83.4471 24.7256 83.5571 24.3247C83.6871 23.9136 83.7871 23.5728 83.8671 23.2821C83.9471 22.9814 83.9971 22.7909 84.0371 22.7207L83.0771 19.5329C83.0471 19.4026 83.0471 19.2923 83.0771 19.2021C83.1271 19.1018 83.2071 19.0617 83.3371 19.0617H85.0971C85.4571 19.0617 85.6771 19.2221 85.7571 19.5329C86.1771 20.9965 86.5571 22.3298 86.8871 23.5427C87.0271 24.064 87.1671 24.5753 87.3071 25.0765C87.4471 25.5777 87.5771 26.0489 87.6871 26.4699C87.8171 26.891 87.9171 27.2619 87.9971 27.5827C88.0771 27.8834 88.1271 28.0739 88.1671 28.1741L88.8771 30.9108H88.9771L89.6371 28.1039C89.6671 28.0037 89.7171 27.8132 89.8071 27.5125C89.8871 27.2017 89.9771 26.8308 90.0871 26.3998C90.1971 25.9687 90.3171 25.5076 90.4371 25.0063C90.5771 24.5051 90.7171 23.9938 90.8571 23.4926C91.1671 22.2997 91.5271 20.9764 91.9171 19.5329C91.9971 19.2221 92.2171 19.0617 92.5771 19.0617H94.3571C94.6371 19.0617 94.7271 19.2321 94.6171 19.583L90.5471 34.229C90.4971 34.3994 90.4171 34.5297 90.3071 34.6099C90.2071 34.6901 90.0571 34.7302 89.8371 34.7302H88.2171C87.9671 34.7302 87.7971 34.6901 87.6971 34.6099C87.6171 34.5097 87.5571 34.3894 87.5071 34.229L85.7971 28.4047L85.3271 26.7506L85.2271 26.7707H85.2071L85.1871 26.7606Z" fill="#FFFFFF"/>
<path d="M102.797 29.4472H99.9271C99.3271 29.4472 98.8671 29.5876 98.5171 29.8683C98.1671 30.1389 97.9971 30.6502 97.9971 31.4221C97.9971 31.9434 98.0971 32.3043 98.3071 32.5048C98.5271 32.6952 98.9071 32.7854 99.4571 32.7854C99.7071 32.7854 99.9871 32.7554 100.277 32.6852C100.567 32.615 100.877 32.5348 101.167 32.4246C101.457 32.3143 101.757 32.194 102.037 32.0737C102.317 31.9333 102.567 31.793 102.787 31.6727V29.4272L102.797 29.4472ZM102.937 33.3669C102.337 33.818 101.667 34.1989 100.917 34.4796C100.177 34.7603 99.4171 34.9006 98.6171 34.9006C97.9871 34.9006 97.4671 34.8204 97.0471 34.6601C96.6371 34.4896 96.3071 34.2591 96.0571 33.9784C95.8171 33.6776 95.6471 33.3268 95.5371 32.9158C95.4371 32.5048 95.3971 32.0536 95.3971 31.5524C95.3871 30.169 95.7471 29.1666 96.4771 28.5551C97.2171 27.9235 98.3271 27.6127 99.8171 27.6127H102.827V27.0012C102.827 26.6504 102.787 26.3697 102.707 26.1291C102.647 25.8785 102.517 25.678 102.327 25.5176C102.137 25.3572 101.887 25.2469 101.577 25.1868C101.267 25.1266 100.867 25.0865 100.377 25.0865C100.187 25.0865 99.9571 25.0865 99.6671 25.1066C99.4071 25.1166 99.1171 25.1367 98.8171 25.1567C98.5371 25.1667 98.2471 25.1968 97.9471 25.2269C97.6671 25.257 97.4071 25.287 97.1671 25.297C96.9271 25.3271 96.7671 25.3371 96.6771 25.3171C96.5971 25.287 96.5471 25.1868 96.5071 25.0063L96.2971 24.1342C96.2671 23.9738 96.2871 23.8535 96.3471 23.7533C96.4071 23.643 96.5771 23.5327 96.8371 23.4224C97.0871 23.3222 97.3871 23.252 97.7271 23.1819C98.0671 23.1117 98.4271 23.0716 98.7871 23.0415C99.1471 22.9914 99.4971 22.9613 99.8471 22.9413C100.207 22.9112 100.527 22.8911 100.807 22.8911C101.827 22.8911 102.627 22.9914 103.227 23.2019C103.837 23.4024 104.297 23.6931 104.617 24.074C104.927 24.4349 105.137 24.886 105.227 25.4173C105.327 25.9486 105.367 26.5501 105.367 27.2117V31.7629C105.367 32.0035 105.367 32.184 105.387 32.3243C105.417 32.4546 105.457 32.5549 105.507 32.6351C105.567 32.6952 105.657 32.7453 105.767 32.7754C105.877 32.8055 106.027 32.8356 106.217 32.8456C106.387 32.8556 106.507 32.8957 106.567 32.9458C106.627 32.996 106.667 33.0762 106.667 33.2065V34.1989C106.667 34.4696 106.477 34.63 106.107 34.6901C105.917 34.7202 105.727 34.7503 105.547 34.7603C105.357 34.7904 105.177 34.8104 105.007 34.8104C104.457 34.8104 104.017 34.7102 103.667 34.4997C103.337 34.2992 103.107 33.9182 102.987 33.3669L102.937 33.3468V33.3669Z" fill="#FFFFFF"/>
<path d="M111.217 31.783C111.217 32.1439 111.297 32.3744 111.457 32.4647C111.627 32.5448 111.917 32.5849 112.327 32.5849C112.497 32.595 112.607 32.625 112.657 32.6551C112.717 32.6852 112.767 32.7654 112.797 32.8957L112.897 34.0987C112.907 34.2891 112.817 34.4395 112.587 34.5498C112.367 34.66 112.107 34.7302 111.807 34.7603C111.507 34.8104 111.257 34.8305 111.057 34.8305C110.167 34.8305 109.537 34.63 109.177 34.239C108.827 33.828 108.657 33.2265 108.657 32.4246V18.5304C108.657 18.2297 108.807 18.0793 109.107 18.0793H110.777C111.077 18.0793 111.227 18.2297 111.227 18.5304V31.793L111.217 31.783Z" fill="#FFFFFF"/>
<path d="M117.427 31.783C117.427 32.1439 117.507 32.3744 117.667 32.4647C117.837 32.5448 118.127 32.5849 118.537 32.5849C118.707 32.595 118.817 32.625 118.867 32.6551C118.927 32.6852 118.977 32.7654 119.007 32.8957L119.107 34.0987C119.117 34.2891 119.027 34.4395 118.797 34.5498C118.577 34.66 118.317 34.7302 118.017 34.7603C117.717 34.8104 117.467 34.8305 117.267 34.8305C116.377 34.8305 115.747 34.63 115.387 34.239C115.037 33.828 114.867 33.2265 114.867 32.4246V18.5304C114.867 18.2297 115.017 18.0793 115.317 18.0793H116.987C117.287 18.0793 117.437 18.2297 117.437 18.5304V31.793L117.427 31.783Z" fill="#FFFFFF"/>
<path d="M123.227 29.6377C123.237 30.2392 123.307 30.7304 123.417 31.1214C123.547 31.5123 123.727 31.8331 123.957 32.0637C124.197 32.2842 124.487 32.4446 124.827 32.5348C125.177 32.6351 125.587 32.6752 126.067 32.6752C126.487 32.6752 126.987 32.6451 127.567 32.5749C128.147 32.5048 128.667 32.4546 129.117 32.4045C129.337 32.3744 129.487 32.3845 129.567 32.4246C129.667 32.4546 129.727 32.585 129.757 32.8055L129.897 33.5874C129.927 33.7578 129.917 33.8982 129.877 34.0084C129.847 34.1187 129.717 34.219 129.497 34.3192C129.257 34.4195 128.987 34.4997 128.677 34.5798C128.367 34.64 128.037 34.7001 127.687 34.7503C127.337 34.8004 126.997 34.8305 126.657 34.8706C126.307 34.9006 125.997 34.9207 125.717 34.9207C124.587 34.9207 123.687 34.7503 123.017 34.4295C122.347 34.1087 121.827 33.6576 121.467 33.1062C121.107 32.5549 120.867 31.9233 120.737 31.2216C120.627 30.4998 120.567 29.748 120.567 28.9761C120.567 28.4147 120.617 27.7731 120.707 27.0614C120.807 26.3496 121.017 25.698 121.337 25.0765C121.687 24.465 122.187 23.9537 122.837 23.5427C123.507 23.1217 124.417 22.9112 125.567 22.9112C126.617 22.9112 127.467 23.0716 128.107 23.3823C128.767 23.6931 129.277 24.1041 129.637 24.6053C129.997 25.0966 130.237 25.6579 130.367 26.3095C130.507 26.9411 130.587 27.5726 130.607 28.1942C130.617 28.6152 130.547 28.9661 130.397 29.2367C130.247 29.5074 129.927 29.6377 129.457 29.6377H123.227ZM125.577 25.0364C125.137 25.0364 124.777 25.0966 124.497 25.2269C124.217 25.3572 123.977 25.5376 123.787 25.7883C123.617 26.0288 123.487 26.3196 123.407 26.6905C123.327 27.0413 123.277 27.4323 123.237 27.8734H127.887C127.887 27.5125 127.857 27.1616 127.787 26.8308C127.727 26.48 127.607 26.1792 127.437 25.9085C127.277 25.6379 127.047 25.4274 126.727 25.277C126.427 25.1166 126.037 25.0364 125.557 25.0364H125.577Z" fill="#FFFFFF"/>
<path d="M139.907 33.818C139.957 34.0886 139.847 34.2791 139.597 34.4094C139.397 34.5097 139.147 34.5799 138.867 34.65C138.597 34.7102 138.317 34.7603 138.017 34.7904C137.737 34.8405 137.457 34.8706 137.197 34.8906C136.947 34.9006 136.727 34.9107 136.537 34.9107C135.847 34.9107 135.307 34.8104 134.917 34.63C134.537 34.4295 134.257 34.1488 134.067 33.7979C133.877 33.4471 133.757 33.0561 133.717 32.595C133.677 32.1338 133.647 31.6627 133.647 31.1514V25.2269H132.477C132.307 25.2269 132.187 25.1968 132.127 25.1266C132.067 25.0464 132.027 24.9261 132.027 24.7758V23.6229C132.027 23.4625 132.057 23.3422 132.127 23.2721C132.197 23.2019 132.307 23.1518 132.477 23.1518H133.677V20.7258C133.677 20.5554 133.717 20.4351 133.797 20.375C133.897 20.2948 133.997 20.2446 134.127 20.2045L135.697 19.7835C136.007 19.7033 136.167 19.7935 136.167 20.0642V23.1518H138.677C138.867 23.1518 138.987 23.1919 139.027 23.2721C139.087 23.3523 139.127 23.4625 139.127 23.6029V24.7858C139.127 24.9462 139.097 25.0665 139.027 25.1367C138.977 25.1968 138.857 25.2369 138.677 25.2369H136.167V31.1113C136.167 31.4221 136.187 31.6727 136.237 31.8431C136.287 32.0135 136.367 32.1539 136.477 32.2441C136.607 32.3243 136.767 32.3744 136.967 32.3845C137.167 32.3945 137.427 32.4045 137.747 32.4045C137.917 32.4045 138.167 32.4045 138.477 32.3845C138.807 32.3744 139.087 32.3444 139.327 32.3143C139.457 32.3043 139.547 32.3143 139.607 32.3644C139.667 32.4145 139.717 32.5048 139.747 32.6451L139.917 33.828L139.907 33.818Z" fill="#FFFFFF"/>
</svg>
