<svg width="40" height="16" viewBox="0 0 40 16" fill="none" xmlns="http://www.w3.org/2000/svg">
<path d="M10.7446 7.5005L11.2504 6.9938V6.79264C11.2504 6.49728 11.2251 6.20972 11.175 5.93018L9.60138 7.50634L10.7446 7.5005Z" fill="#EF8271"/>
<path d="M10.8742 4.92772C10.8336 4.83375 10.7906 4.74193 10.7454 4.65186L8.8475 6.55283C8.85507 6.63165 8.85875 6.71155 8.85875 6.79253V7.51013L9.02975 7.50927L11.0675 5.4682C11.0145 5.28457 10.9503 5.1042 10.8742 4.92772Z" fill="#EF8271"/>
<path d="M10.0594 3.63037L8.36108 5.33148C8.48409 5.49172 8.58764 5.66798 8.67109 5.8607C8.70201 5.93215 8.72881 6.00491 8.75216 6.07896L10.5422 4.28604C10.3993 4.05283 10.2384 3.83435 10.0594 3.63037Z" fill="#EF8271"/>
<path d="M9.15319 2.82959L7.39929 4.58635C7.65893 4.69873 7.88916 4.84814 8.08978 5.03371L9.78142 3.33932C9.58642 3.15158 9.37715 2.9816 9.15319 2.82959Z" fill="#EF8271"/>
<path d="M8.32937 2.37842C8.2269 2.33425 8.12313 2.29419 8.01828 2.25781L5.88239 4.39719H6.46738C6.63946 4.39719 6.80635 4.41451 6.96784 4.44894L8.80151 2.61228C8.64997 2.52718 8.49259 2.44901 8.32937 2.37842Z" fill="#EF8271"/>
<path d="M6.56614 2.00342L4.17645 4.39701H5.27185H5.31358L7.57766 2.12944C7.25166 2.05214 6.91441 2.01013 6.56614 2.00342Z" fill="#EF8271"/>
<path d="M4.8615 2.00244L2.47073 4.39711H2.8804H3.60786L5.99863 2.00244H4.8615Z" fill="#EF8271"/>
<path d="M3.15563 2.00244L1.68494 3.47554V4.39711H1.90198L4.29297 2.00244H3.15563Z" fill="#EF8271"/>
<path d="M1.68494 2.00244V2.90605L2.58707 2.00244H1.68494Z" fill="#EF8271"/>
<path d="M16.264 13.9998H16.9787V13.2842L16.264 13.9998Z" fill="#6D5F58"/>
<path d="M16.9623 11.6045L14.5707 14H15.6996L16.9787 12.719V11.6045H16.9623Z" fill="#6D5F58"/>
<path d="M15.7833 11.6045H15.4774H15.269L12.8773 14H14.0062L16.3976 11.6045H15.7833Z" fill="#6D5F58"/>
<path d="M14.3483 11.6045H13.7836H13.5758L12.1962 12.9864V14H12.3131L14.7047 11.6045H14.3483Z" fill="#6D5F58"/>
<path d="M12.1962 11.6045V12.4208L13.0112 11.6045H12.1962Z" fill="#6D5F58"/>
<path d="M2.87262 11.5781H2.86462V11.5874H2.87262V11.5781Z" fill="#1D1D1B"/>
<path d="M32.3427 13.984V11.5874C32.0124 11.5874 31.73 11.4711 31.4966 11.2371C31.2626 11.003 31.1468 10.7204 31.1468 10.3895V5.59694C31.1468 5.26629 31.2626 4.98328 31.4966 4.74942C31.7303 4.51621 32.0124 4.39841 32.3427 4.39841H34.7354C35.0655 4.39841 35.3472 4.51621 35.5809 4.74942C35.8146 4.98349 35.9313 5.26629 35.9313 5.59694V6.19588H38.3238V5.59694C38.3238 5.1067 38.2292 4.64158 38.0417 4.20202C37.8539 3.76245 37.5975 3.38004 37.2728 3.05502C36.9478 2.72957 36.5661 2.47319 36.1281 2.2848C35.6894 2.09663 35.2249 2.00244 34.7354 2.00244H32.3427C31.8414 2.00244 31.374 2.09663 30.9416 2.2848C30.5084 2.47341 30.1296 2.72957 29.8047 3.05502C29.48 3.38026 29.224 3.76266 29.0364 4.20202C28.8481 4.64158 28.7543 5.1067 28.7543 5.59694V10.3895C28.7543 10.8917 28.8481 11.3598 29.0364 11.7929C29.2243 12.2268 29.4802 12.6062 29.8047 12.9317C30.1296 13.2569 30.5084 13.5133 30.9416 13.7012C31.374 13.8901 31.8412 13.984 32.3427 13.984Z" fill="#838C7A"/>
<path d="M2.87195 10.7852H5.25688V9.90172H4.45679V9.10183H5.25688V7.50293H4.45981V8.30022H2.87195V10.7852Z" fill="#EF8271"/>
<path d="M6.8551 7.5H6.05652V8.29988H6.8551V7.5Z" fill="#F4AB99"/>
<path d="M12.1952 2V2.0026V4.39576H16.9795V2.0026V2H12.1952Z" fill="#6D5F58"/>
<path d="M12.5929 8.30029H11.7943V9.10018H12.5929V8.30029Z" fill="#9B8F89"/>
<path d="M15.7838 9.10174V5.19629H13.3908V9.10152H12.5929V9.90162H13.3908V11.6038H15.7838V9.90162H14.985V9.10174H15.7838Z" fill="#9B8F89"/>
<path d="M17.3143 7.50049H16.5157V8.30037H17.3143V7.50049Z" fill="#9B8F89"/>
<path d="M24.0372 2.29087V2.85624V3.98721V4.39776V4.39841C24.3673 4.39841 24.649 4.51621 24.8827 4.74942C25.1164 4.98349 25.2331 5.26607 25.2331 5.59694V6.19588H27.6258V5.59694C27.6258 5.10649 27.5311 4.64137 27.3435 4.2018C27.1558 3.76223 26.8992 3.38004 26.5745 3.05481C26.2498 2.72957 25.868 2.47319 25.43 2.28459C24.9912 2.09642 24.5268 2.00244 24.0372 2.00244V2.00287V2.29087Z" fill="#F4AC70"/>
<path d="M25.2327 7.51367V9.91029H25.2331V10.3895C25.2331 10.7204 25.1163 11.0032 24.8827 11.237C24.6487 11.4711 24.3673 11.5874 24.0369 11.5874H21.6444C21.3143 11.5874 21.032 11.4711 20.7983 11.237C20.5646 11.0029 20.4485 10.7204 20.4485 10.3895L20.4492 7.9933L20.4494 7.5808V7.51367H19.3875H18.823H18.0586H18.0569L18.056 10.3895C18.056 10.8916 18.1499 11.3598 18.3381 11.7929C18.5258 12.2266 18.7818 12.6062 19.1065 12.9316C19.4312 13.2569 19.8101 13.5132 20.2432 13.7012C20.6757 13.89 21.1431 13.984 21.6442 13.984H24.0369C24.5266 13.984 24.991 13.89 25.4298 13.7012C25.8678 13.5132 26.2496 13.2569 26.5743 12.9316C26.899 12.6062 27.1556 12.2266 27.3432 11.7929C27.5311 11.3596 27.6256 10.8916 27.6256 10.3895V7.51367H25.2327Z" fill="#F4AC70"/>
<path d="M24.4344 9.91029V7.51367H23.6354V8.31356H22.8368V7.51367H21.2474V9.11041H22.8448V9.91029H24.4344Z" fill="#ED8532"/>
<path d="M31.9457 7.51367V8.31052H32.744H33.5426V9.11041H32.744V9.91029H35.1329V9.9077V7.51367H31.9457Z" fill="#556850"/>
<path d="M11.2457 7.5H10.891H10.4132H9.27585H8.85905H7.65361V8.29988H6.85503V9.09977V9.90138H8.4522H8.73496C8.71162 9.97544 8.69648 10.0521 8.66535 10.124C8.53953 10.4152 8.36853 10.6692 8.15235 10.886C7.93617 11.1025 7.68237 11.2738 7.39247 11.3994C7.1017 11.5254 6.79083 11.5873 6.4605 11.5873H2.87186H2.86386H1.67615V13.9839H6.46072C7.12137 13.9839 7.74247 13.8586 8.32357 13.6072C8.90467 13.3566 9.41119 13.0145 9.84442 12.5806C10.2776 12.1469 10.619 11.6391 10.87 11.0575C11.0285 10.6891 11.1311 10.3031 11.1893 9.9029C11.2234 9.67056 11.2518 9.19158 11.2518 9.19158V7.50022H11.2457V7.5Z" fill="#F4AB99"/>
<path d="M20.4168 7.51647L20.4494 7.48377V6.35303L19.2892 7.51517L20.4168 7.51647Z" fill="#ED8532"/>
<path d="M23.5313 4.39683L24.0363 3.89101V2.76025L22.4026 4.39683H23.5313Z" fill="#ED8532"/>
<path d="M20.4494 5.59494C20.4494 5.26429 20.5655 4.98171 20.799 4.74763C21.0324 4.51442 21.3146 4.39684 21.6449 4.39684H21.8382L24.0365 2.19489V2.00195H23.1002L18.058 7.05244V7.51388L18.7253 7.51453L20.4494 5.78765V5.59494Z" fill="#ED8532"/>
<path d="M21.6449 2.00244C21.5619 2.00244 21.4799 2.00526 21.3989 2.01045L18.0662 5.34836C18.0608 5.42999 18.058 5.51206 18.058 5.59521V6.48734L22.5356 2.00244H21.6449Z" fill="#ED8532"/>
<path d="M20.2444 2.28414C19.8114 2.47274 19.4327 2.7289 19.1082 3.05414C18.7837 3.37938 18.528 3.76135 18.3403 4.2007C18.2744 4.35444 18.2203 4.51164 18.1775 4.67166L20.7276 2.11719C20.562 2.16049 20.401 2.21614 20.2444 2.28414Z" fill="#ED8532"/>
<path d="M36.1273 13.7013C36.565 13.5134 36.9466 13.2572 37.2713 12.9322C37.596 12.6072 37.8524 12.2278 38.0401 11.7941C38.1036 11.6473 38.1564 11.4961 38.1985 11.3413L35.6876 13.8564C35.8367 13.8146 35.9833 13.7633 36.1273 13.7013Z" fill="#556850"/>
<path d="M38.322 10.391V9.521L33.8664 13.9838H34.735C34.8258 13.9838 34.916 13.9805 35.0051 13.9741L38.3124 10.6613C38.3189 10.5723 38.322 10.4822 38.322 10.391Z" fill="#556850"/>
<path d="M38.322 7.8252L35.9305 10.2205V10.3911C35.9305 10.7218 35.8138 11.0044 35.5803 11.2385C35.3468 11.4723 35.0654 11.5886 34.7353 11.5886H34.5649L32.3436 13.8135V13.9841H33.3022L38.3222 8.95595V7.8252H38.322Z" fill="#556850"/>
<path d="M32.8716 11.5884L32.3436 12.1172V13.2477L34.0005 11.5884H32.8716Z" fill="#556850"/>
<path d="M36.9313 7.52197L35.9305 8.52432V9.65507L38.0602 7.52197H36.9313Z" fill="#556850"/>
<path d="M35.9305 7.52197V7.95916L36.3668 7.52197H35.9305Z" fill="#556850"/>
</svg>
