<svg width="180" height="180" viewBox="0 0 180 180" fill="none" xmlns="http://www.w3.org/2000/svg">
<path d="M18 90.0001C18 109.096 25.5857 127.409 39.0883 140.912C52.591 154.414 70.9044 162 90.0001 162C109.096 162 127.409 154.414 140.912 140.912C154.414 127.409 162 109.096 162 90.0001C162 70.9045 154.414 52.591 140.912 39.0883C127.409 25.5857 109.096 18 90.0001 18C70.9044 18 52.591 25.5857 39.0883 39.0883C25.5857 52.591 18 70.9045 18 90.0001Z" fill="#D5DAD4"/>
<path d="M37.0656 41.1804H134.203V121.082H37.0656V41.1804Z" fill="#EBC9C5"/>
<path d="M127.937 41.1804H43.3368C42.5138 41.1801 41.6989 41.342 40.9384 41.6568C40.178 41.9716 39.4871 42.4331 38.9051 43.0149C38.323 43.5968 37.8613 44.2876 37.5463 45.0479C37.2313 45.8083 37.0692 46.6232 37.0692 47.4462V59.9796H134.203V47.4462C134.203 45.7844 133.542 44.1907 132.367 43.0156C131.192 41.8405 129.599 41.1804 127.937 41.1804Z" fill="white"/>
<path d="M37.0656 41.1804H134.203V121.082H37.0656V41.1804Z" stroke="#1E1D1B" stroke-linejoin="round"/>
<path d="M127.937 41.1786H43.3368C41.6745 41.1786 40.0804 41.839 38.9049 43.0144C37.7295 44.1898 37.0692 45.7839 37.0692 47.4462V59.9796H134.203V47.4462C134.203 45.7843 133.542 44.1903 132.367 43.015C131.192 41.8396 129.599 41.1791 127.937 41.1786Z" stroke="#1E1D1B" stroke-linejoin="round"/>
<path d="M43.3333 50.58C43.3333 50.9916 43.4143 51.3991 43.5718 51.7793C43.7293 52.1595 43.9601 52.505 44.2511 52.796C44.5421 53.087 44.8876 53.3178 45.2678 53.4753C45.648 53.6328 46.0555 53.7138 46.4671 53.7138C46.8786 53.7138 47.2861 53.6328 47.6663 53.4753C48.0465 53.3178 48.392 53.087 48.683 52.796C48.974 52.505 49.2048 52.1595 49.3623 51.7793C49.5198 51.3991 49.6009 50.9916 49.6009 50.58C49.6009 50.1685 49.5198 49.761 49.3623 49.3808C49.2048 49.0006 48.974 48.6551 48.683 48.3641C48.392 48.0731 48.0465 47.8423 47.6663 47.6848C47.2861 47.5273 46.8786 47.4462 46.4671 47.4462C46.0555 47.4462 45.648 47.5273 45.2678 47.6848C44.8876 47.8423 44.5421 48.0731 44.2511 48.3641C43.9601 48.6551 43.7293 49.0006 43.5718 49.3808C43.4143 49.761 43.3333 50.1685 43.3333 50.58Z" fill="#E6BCB6" stroke="#1E1D1B" stroke-linejoin="round"/>
<path d="M55.8667 50.58C55.8667 51.4112 56.1969 52.2083 56.7846 52.796C57.3723 53.3837 58.1694 53.7138 59.0005 53.7138C59.8316 53.7138 60.6287 53.3837 61.2164 52.796C61.8041 52.2083 62.1343 51.4112 62.1343 50.58C62.1343 49.7489 61.8041 48.9518 61.2164 48.3641C60.6287 47.7764 59.8316 47.4462 59.0005 47.4462C58.1694 47.4462 57.3723 47.7764 56.7846 48.3641C56.1969 48.9518 55.8667 49.7489 55.8667 50.58Z" fill="#E6BCB6" stroke="#1E1D1B" stroke-linecap="round" stroke-linejoin="round"/>
<path d="M68.4 50.58C68.4 51.4112 68.7302 52.2083 69.3179 52.796C69.9056 53.3837 70.7027 53.7138 71.5338 53.7138C72.365 53.7138 73.1621 53.3837 73.7498 52.796C74.3375 52.2083 74.6676 51.4112 74.6676 50.58C74.6676 49.7489 74.3375 48.9518 73.7498 48.3641C73.1621 47.7764 72.365 47.4462 71.5338 47.4462C70.7027 47.4462 69.9056 47.7764 69.3179 48.3641C68.7302 48.9518 68.4 49.7489 68.4 50.58Z" fill="#E6BCB6" stroke="#1E1D1B" stroke-linejoin="round"/>
<path d="M49.0734 66.5568H80.3934V109.265H49.0734V66.5568Z" fill="white" stroke="#1E1D1B" stroke-linecap="round" stroke-linejoin="round"/>
<path d="M56.1924 83.6406C56.1924 84.7623 56.4133 85.8729 56.8425 86.9091C57.2718 87.9454 57.9009 88.8869 58.694 89.68C59.4871 90.4732 60.4286 91.1023 61.4649 91.5315C62.5011 91.9607 63.6118 92.1816 64.7334 92.1816C65.855 92.1816 66.9656 91.9607 68.0019 91.5315C69.0381 91.1023 69.9797 90.4732 70.7728 89.68C71.5659 88.8869 72.195 87.9454 72.6242 86.9091C73.0535 85.8729 73.2744 84.7623 73.2744 83.6406C73.2744 81.3754 72.3745 79.203 70.7728 77.6012C69.171 75.9995 66.9986 75.0996 64.7334 75.0996C62.4682 75.0996 60.2957 75.9995 58.694 77.6012C57.0922 79.203 56.1924 81.3754 56.1924 83.6406Z" fill="#E6BCB6" stroke="#1E1D1B" stroke-linejoin="round"/>
<path d="M89.6777 72.1278H106.184" stroke="#1E1D1B" stroke-linecap="round" stroke-linejoin="round"/>
<path d="M89.6777 92.7593H116.5" stroke="#1E1D1B" stroke-linecap="round" stroke-linejoin="round"/>
<path d="M89.6777 82.4437H112.374" stroke="#1E1D1B" stroke-linecap="round" stroke-linejoin="round"/>
<path d="M89.6777 103.077H112.374" stroke="#1E1D1B" stroke-linecap="round" stroke-linejoin="round"/>
<path d="M49.0734 107.082C49.2754 103.065 51.0135 99.2791 53.9282 96.5074C56.8428 93.7357 60.7112 92.19 64.7334 92.19C68.7555 92.19 72.6239 93.7357 75.5386 96.5074C78.4532 99.2791 80.1913 103.065 80.3934 107.082V107.28C80.3934 107.805 80.1847 108.309 79.8134 108.68C79.4421 109.051 78.9385 109.26 78.4134 109.26H51.0588C50.5336 109.26 50.03 109.051 49.6587 108.68C49.2874 108.309 49.0788 107.805 49.0788 107.28L49.0734 107.082Z" fill="#E6BCB6" stroke="#1E1D1B" stroke-linejoin="round"/>
<path d="M113.4 140.999C113.4 139.498 101.392 138.278 86.58 138.278C71.7678 138.278 59.76 139.498 59.76 140.999C59.76 142.501 71.7696 143.721 86.58 143.721C101.39 143.721 113.4 142.504 113.4 140.999Z" fill="#98A496"/>
<path d="M103.446 108.911C103.446 116.024 106.272 122.847 111.302 127.877C116.332 132.907 123.154 135.733 130.268 135.733C137.381 135.733 144.204 132.907 149.234 127.877C154.264 122.847 157.09 116.024 157.09 108.911C157.09 101.797 154.264 94.9749 149.234 89.9448C144.204 84.9148 137.381 82.0889 130.268 82.0889C123.154 82.0889 116.332 84.9148 111.302 89.9448C106.272 94.9749 103.446 101.797 103.446 108.911Z" fill="white" stroke="#1E1D1B" stroke-linecap="round" stroke-linejoin="round"/>
<path d="M124.841 122.146C124.328 122.147 123.82 122.046 123.346 121.85C122.873 121.654 122.442 121.366 122.08 121.003L114.269 113.191C113.537 112.459 113.126 111.466 113.126 110.43C113.126 109.394 113.537 108.401 114.269 107.669C115.002 106.936 115.995 106.525 117.031 106.525C118.066 106.525 119.06 106.936 119.792 107.669L124.832 112.72L140.733 96.8183C141.465 96.086 142.459 95.6746 143.494 95.6746C144.53 95.6746 145.523 96.086 146.255 96.8183C146.988 97.5507 147.399 98.5439 147.399 99.5795C147.399 100.615 146.988 101.608 146.255 102.341L127.602 121.003C127.24 121.366 126.809 121.654 126.335 121.85C125.862 122.046 125.354 122.147 124.841 122.146Z" fill="#AAB4A8" stroke="#1E1D1B" stroke-linecap="round" stroke-linejoin="round"/>
</svg>
