<svg width="180" height="180" viewBox="0 0 180 180" fill="none" xmlns="http://www.w3.org/2000/svg">
<path d="M87.048 166.835C126.812 166.835 159.048 134.599 159.048 94.8348C159.048 55.071 126.812 22.8348 87.048 22.8348C47.2842 22.8348 15.048 55.071 15.048 94.8348C15.048 134.599 47.2842 166.835 87.048 166.835Z" fill="#D4D9D3"/>
<path d="M157.574 77.922C157.444 78.8427 156.954 79.6741 156.211 80.2337C155.469 80.7933 154.535 81.0353 153.614 80.9064L84.1968 71.172C83.276 71.0426 82.4442 70.5527 81.8845 69.8101C81.3249 69.0674 81.0831 68.1329 81.2124 67.212L88.7706 13.32C88.9218 12.2418 89.3214 11.214 89.9388 10.3176L92.2158 7.0092C92.5852 6.47345 93.0963 6.051 93.692 5.78906C94.2877 5.52713 94.9445 5.43605 95.589 5.526L115.596 8.3286C116.242 8.41731 116.851 8.6847 117.353 9.10068C117.856 9.51665 118.232 10.0647 118.44 10.683L120.24 16.0578L161.892 21.8988C162.348 21.9624 162.787 22.1154 163.184 22.349C163.581 22.5825 163.928 22.8921 164.205 23.26C164.482 23.6278 164.684 24.0467 164.799 24.4927C164.914 24.9386 164.939 25.4029 164.875 25.8588L157.574 77.922Z" fill="#E6BCB6" stroke="#2B2A28" stroke-linecap="round" stroke-linejoin="round"/>
<path d="M87.3054 23.9184L80.9856 68.9346C80.9193 69.4069 81.0433 69.8862 81.3301 70.2673C81.617 70.6483 82.0434 70.8999 82.5156 70.9668L155.29 81.1836C155.762 81.2504 156.242 81.1267 156.623 80.8398C157.005 80.5528 157.257 80.1262 157.324 79.6536L163.642 34.6356C163.707 34.1636 163.583 33.6847 163.296 33.3041C163.01 32.9235 162.583 32.6721 162.112 32.6052L89.3376 22.3866C89.1034 22.3536 88.8651 22.367 88.6361 22.4261C88.4072 22.4852 88.1921 22.5888 88.0032 22.7311C87.8143 22.8733 87.6553 23.0514 87.5353 23.2551C87.4152 23.4589 87.3383 23.6842 87.3054 23.9184Z" fill="white" stroke="#2B2A28" stroke-linecap="round" stroke-linejoin="round"/>
<path d="M93.78 123.989C110.014 113.504 120.512 95.661 122.072 80.0514" stroke="#2B2A28" stroke-linecap="round" stroke-linejoin="round" stroke-dasharray="2 3"/>
<path d="M96.7537 156.744C97.1973 158.535 96.9112 160.43 95.9583 162.01C95.0054 163.591 93.4636 164.728 91.6723 165.172L56.6515 173.839C54.8605 174.282 52.9669 173.995 51.3872 173.042C49.8074 172.089 48.6708 170.548 48.2275 168.757L29.6389 93.6504C29.4187 92.7636 29.3756 91.8421 29.5119 90.9386C29.6482 90.0351 29.9612 89.1674 30.4332 88.385C30.9051 87.6026 31.5267 86.9209 32.2623 86.3789C32.9979 85.8369 33.8332 85.4453 34.7203 85.2264L69.7411 76.5576C71.5319 76.1155 73.425 76.4023 75.0046 77.3551C76.5841 78.3079 77.7208 79.8487 78.1651 81.639L96.7537 156.744Z" fill="white"/>
<path d="M96.7537 156.744C97.1973 158.535 96.9112 160.43 95.9583 162.01C95.0054 163.591 93.4636 164.728 91.6723 165.172L56.6515 173.839C54.8605 174.282 52.967 173.995 51.3872 173.042C49.8074 172.089 48.6708 170.548 48.2275 168.757L29.6389 93.6504C29.4187 92.7636 29.3756 91.8421 29.5119 90.9386C29.6482 90.0351 29.9612 89.1674 30.4332 88.385C30.9051 87.6026 31.5267 86.9209 32.2623 86.3789C32.9979 85.8369 33.8332 85.4453 34.7203 85.2264L69.7411 76.5576C71.5319 76.1155 73.425 76.4023 75.0046 77.3551C76.5841 78.3079 77.7208 79.8487 78.1651 81.639L96.7537 156.744Z" stroke="#2B2A28" stroke-linecap="round" stroke-linejoin="round"/>
<path d="M75.4074 88.5888L35.3214 98.5122L50.7258 160.751L90.8118 150.829L75.4074 88.5888Z" fill="#E6BCB6"/>
<path d="M75.4074 88.5888L35.3214 98.5122L50.7258 160.751L90.8118 150.829L75.4074 88.5888Z" stroke="#2B2A28" stroke-linecap="round" stroke-linejoin="round"/>
<path d="M51.687 87.7446L63.2916 84.8718" stroke="#2B2A28" stroke-linecap="round" stroke-linejoin="round"/>
<path d="M46.6668 88.9866C46.7093 89.1588 46.7176 89.3377 46.691 89.5131C46.6644 89.6885 46.6035 89.8569 46.5118 90.0087C46.4202 90.1606 46.2995 90.2929 46.1567 90.3981C46.0138 90.5033 45.8517 90.5794 45.6795 90.6219C45.5073 90.6645 45.3284 90.6727 45.153 90.6461C44.9776 90.6195 44.8092 90.5586 44.6574 90.4669C44.5055 90.3753 44.3732 90.2546 44.268 90.1118C44.1628 89.9689 44.0867 89.8068 44.0442 89.6346C43.9583 89.2868 44.014 88.9192 44.1992 88.6125C44.3843 88.3058 44.6837 88.0852 45.0315 87.9993C45.3793 87.9134 45.7469 87.9691 46.0536 88.1543C46.3603 88.3394 46.5809 88.6388 46.6668 88.9866Z" fill="#2B2A28"/>
<path d="M72.4662 166.451C73.475 166.451 74.4424 166.051 75.1557 165.337C75.8689 164.624 76.2696 163.657 76.2696 162.648C76.2696 161.639 75.8689 160.672 75.1557 159.959C74.4424 159.245 73.475 158.845 72.4662 158.845C71.4575 158.845 70.4901 159.245 69.7768 159.959C69.0636 160.672 68.6628 161.639 68.6628 162.648C68.6628 163.657 69.0636 164.624 69.7768 165.337C70.4901 166.051 71.4575 166.451 72.4662 166.451Z" fill="white" stroke="#2B2A28" stroke-linecap="round" stroke-linejoin="round"/>
<path d="M72.288 133.121C71.8423 133.232 71.379 133.254 70.9249 133.185C70.4707 133.116 70.0347 132.958 69.642 132.719L64.26 129.469L61.0092 134.858C60.7721 135.251 60.4599 135.593 60.0904 135.866C59.721 136.138 59.3014 136.335 58.8558 136.446C58.4102 136.556 57.9472 136.577 57.4933 136.509C57.0394 136.44 56.6035 136.283 56.2104 136.046C55.8173 135.809 55.4747 135.497 55.2023 135.127C54.9298 134.758 54.7328 134.338 54.6225 133.892C54.5122 133.447 54.4907 132.984 54.5594 132.53C54.628 132.076 54.7853 131.64 55.0224 131.247L58.2732 125.86L52.884 122.607C52.1098 122.119 51.5578 121.347 51.3467 120.456C51.1356 119.566 51.2822 118.628 51.755 117.844C52.2278 117.06 52.989 116.494 53.8753 116.265C54.7615 116.036 55.702 116.165 56.4948 116.622L61.8786 119.88L65.1294 114.48C65.4198 113.975 65.8317 113.551 66.3277 113.247C66.8237 112.942 67.388 112.766 67.9693 112.735C68.5507 112.704 69.1306 112.818 69.6563 113.068C70.182 113.319 70.6368 113.696 70.9794 114.167C71.3922 114.732 71.6258 115.408 71.6499 116.108C71.6739 116.808 71.4874 117.498 71.1144 118.091L67.86 123.48L73.2492 126.72C73.8402 127.078 74.3121 127.603 74.6053 128.228C74.8985 128.854 74.9999 129.553 74.8967 130.236C74.7935 130.919 74.4904 131.556 74.0255 132.068C73.5606 132.579 72.9548 132.941 72.2844 133.108L72.288 133.121Z" fill="white" stroke="#2B2A28" stroke-linecap="round" stroke-linejoin="round"/>
<path d="M111.767 68.1642C111.425 68.1153 111.099 67.9889 110.813 67.7948C110.527 67.6006 110.289 67.3438 110.117 67.0439C109.946 66.7439 109.845 66.4088 109.822 66.0639C109.8 65.719 109.856 65.3736 109.987 65.0538C110.953 62.7447 112.658 60.8215 114.834 59.5856C117.011 58.3497 119.536 57.8711 122.013 58.2248C124.491 58.5786 126.781 59.7446 128.525 61.5401C130.269 63.3357 131.367 65.6591 131.648 68.1462C131.684 68.4898 131.642 68.837 131.523 69.1615C131.405 69.4861 131.214 69.7794 130.965 70.0192C130.717 70.259 130.417 70.439 130.088 70.5455C129.76 70.652 129.411 70.6822 129.069 70.6338C126.308 69.6188 123.468 68.832 120.578 68.2812C117.649 68.0016 114.703 67.9625 111.767 68.1642Z" fill="#E6BCB6" stroke="#2B2A28" stroke-linecap="round" stroke-linejoin="round"/>
<path d="M140.555 52.4808C140.192 52.4807 139.835 52.3964 139.511 52.2346C139.187 52.0728 138.904 51.8379 138.686 51.5484L136.84 49.0878L134.379 50.9418C133.948 51.2666 133.417 51.4307 132.878 51.4058C132.339 51.3808 131.826 51.1683 131.427 50.805C131.172 50.5744 130.97 50.2903 130.837 49.9729C130.704 49.6556 130.643 49.3128 130.658 48.969C130.672 48.6253 130.762 48.2889 130.922 47.984C131.081 47.6791 131.306 47.4131 131.58 47.205L134.041 45.36L132.194 42.8994C131.873 42.4021 131.753 41.8017 131.857 41.2192C131.961 40.6367 132.282 40.1153 132.756 39.76C133.229 39.4047 133.819 39.2419 134.408 39.3044C134.996 39.3669 135.539 39.6501 135.927 40.0968L137.774 42.5592L140.234 40.7124C140.581 40.4518 140.993 40.2932 141.425 40.2548C141.856 40.2163 142.29 40.2993 142.677 40.4946C143.001 40.6566 143.284 40.8906 143.501 41.1786C143.872 41.6744 144.031 42.2967 143.943 42.9093C143.856 43.5219 143.529 44.0749 143.035 44.4474L140.58 46.287L142.425 48.7476C142.682 49.0948 142.838 49.5064 142.876 49.9369C142.914 50.3674 142.831 50.7999 142.638 51.1865C142.445 51.5731 142.149 51.8987 141.782 52.1271C141.415 52.3556 140.992 52.478 140.56 52.4808H140.555Z" fill="#E6BCB6" stroke="#2B2A28" stroke-linecap="round" stroke-linejoin="round"/>
<path d="M114.046 48.699C113.684 48.6994 113.326 48.6151 113.002 48.4529C112.678 48.2907 112.397 48.0551 112.18 47.7648L110.34 45.306L107.874 47.16C107.567 47.3903 107.209 47.5413 106.83 47.5996C106.451 47.658 106.063 47.6219 105.702 47.4946C105.34 47.3673 105.015 47.1527 104.757 46.8698C104.498 46.5869 104.313 46.2445 104.218 45.873C104.103 45.4268 104.122 44.9565 104.272 44.521C104.423 44.0855 104.699 43.7042 105.066 43.425L107.532 41.58L105.687 39.1176C105.429 38.7703 105.273 38.3583 105.235 37.9274C105.197 37.4964 105.279 37.0634 105.473 36.6765C105.666 36.2895 105.963 35.9638 106.33 35.7353C106.698 35.5069 107.121 35.3848 107.554 35.3826C107.916 35.3834 108.273 35.4684 108.597 35.6308C108.921 35.7933 109.203 36.0287 109.42 36.3186L111.267 38.7774L113.728 36.9324C114.222 36.56 114.845 36.399 115.458 36.4847C116.072 36.5704 116.626 36.8958 117 37.3896C117.37 37.8856 117.529 38.508 117.441 39.1206C117.353 39.7332 117.026 40.2862 116.532 40.6584L114.073 42.5016L115.92 44.9622C116.179 45.31 116.336 45.7228 116.374 46.1547C116.412 46.5865 116.329 47.0204 116.134 47.4079C115.94 47.7954 115.642 48.1213 115.273 48.3493C114.904 48.5773 114.48 48.6983 114.046 48.699Z" fill="#E6BCB6" stroke="#2B2A28" stroke-linecap="round" stroke-linejoin="round"/>
</svg>
