<svg width="43" height="43" viewBox="0 0 43 43" fill="none" xmlns="http://www.w3.org/2000/svg">
<path d="M21.5 38.9687C23.4708 38.9687 25.0833 37.3562 25.0833 35.3854H17.9167C17.9167 37.3562 19.5292 38.9687 21.5 38.9687ZM32.25 28.2187V19.2604C32.25 13.76 29.3296 9.15542 24.1875 7.93708V6.71875C24.1875 5.23167 22.9871 4.03125 21.5 4.03125C20.0129 4.03125 18.8125 5.23167 18.8125 6.71875V7.93708C13.6883 9.15542 10.75 13.7421 10.75 19.2604V28.2187L7.16667 31.8021V33.5937H35.8333V31.8021L32.25 28.2187ZM28.6667 30.0104H14.3333V19.2604C14.3333 14.8171 17.0388 11.1979 21.5 11.1979C25.9613 11.1979 28.6667 14.8171 28.6667 19.2604V30.0104ZM13.5808 6.86208L11.0188 4.3C6.71875 7.57875 3.88792 12.6312 3.63708 18.3646H7.22042C7.48917 13.6167 9.92584 9.46 13.5808 6.86208ZM35.7796 18.3646H39.3629C39.0942 12.6312 36.2633 7.57875 31.9813 4.3L29.4371 6.86208C33.0563 9.46 35.5108 13.6167 35.7796 18.3646Z" fill="#556951"/>
</svg>
