<svg width="39" height="39" viewBox="0 0 39 39" fill="none" xmlns="http://www.w3.org/2000/svg">
<path d="M19.8607 32.2644C19.5682 32.5569 19.0482 32.6056 18.707 32.2644C18.4145 31.9719 18.3657 31.4519 18.707 31.1106L24.2157 25.6019L21.9245 23.3106L16.4157 28.8194C16.107 29.1444 15.587 29.1281 15.262 28.8194C14.9207 28.4781 14.9695 27.9581 15.262 27.6656L20.7707 22.1569L18.4795 19.8656L12.9707 25.3744C12.6782 25.6669 12.1582 25.7156 11.817 25.3744C11.5082 25.0656 11.5082 24.5456 11.817 24.2206L17.3257 18.7119L15.0182 16.4206L9.5095 21.9294C9.217 22.2219 8.697 22.2706 8.35575 21.9294C8.047 21.6044 8.047 21.1006 8.35575 20.7756L15.4732 13.6581L18.512 16.6806C20.0557 18.2244 22.7207 18.2081 24.2645 16.6806C25.857 15.0881 25.857 12.5206 24.2645 10.9281L21.242 7.90562L21.697 7.45062C22.9645 6.18312 25.0282 6.18312 26.2957 7.45062L33.1857 14.3406C34.4532 15.6081 34.4532 17.6719 33.1857 18.9394L19.8607 32.2644ZM35.477 21.2469C38.012 18.7119 38.012 14.6006 35.477 12.0494L28.587 5.15937C26.052 2.62437 21.9407 2.62437 19.3895 5.15937L18.9345 5.61437L18.4795 5.15937C15.9445 2.62437 11.8332 2.62437 9.282 5.15937L3.5295 10.9119C1.222 13.2194 1.01075 16.8106 2.8795 19.3456L5.23575 16.9894C4.602 15.7706 4.81325 14.2269 5.837 13.2031L11.5895 7.45062C12.857 6.18312 14.9207 6.18312 16.1882 7.45062L21.9732 13.2356C22.2657 13.5281 22.3145 14.0481 21.9732 14.3894C21.632 14.7306 21.112 14.6819 20.8195 14.3894L15.4732 9.05937L6.04825 18.4681C4.45575 20.0444 4.45575 22.6281 6.04825 24.2206C6.682 24.8544 7.4945 25.2444 8.35575 25.3581C8.4695 26.2031 8.84325 27.0156 9.49325 27.6656C10.1432 28.3156 10.9557 28.6894 11.8007 28.8031C11.9145 29.6481 12.2882 30.4606 12.9382 31.1106C13.5882 31.7606 14.4007 32.1344 15.2457 32.2481C15.3595 33.1256 15.7495 33.9219 16.3832 34.5556C17.147 35.3194 18.1707 35.7419 19.2595 35.7419C20.3482 35.7419 21.372 35.3194 22.1357 34.5556L35.477 21.2469Z" fill="#556951"/>
</svg>
